<svg xmlns="http://www.w3.org/2000/svg" viewBox="0 0 260 80" fill="none">
  <!-- OpenAI atom/knot mark -->
  <g transform="translate(12,10) scale(0.57)">
    <path d="M52.8 2C45.6 2 39 5.6 35.2 11.2L34.4 11.6 17.4 21.4c-1 .6-1.6 1.6-1.6 2.8v21.6c0 1.2.6 2.2 1.6 2.8l17.4 10c1 .6 2.2.6 3.2 0l17.4-10c1-.6 1.6-1.6 1.6-2.8V24l-7.8 4.5v13.2l-11.2 6.5-11.2-6.5V28.5L38 22l14.8 8.5v18c0 1.2-.6 2.2-1.6 2.8l-17 9.8c-1 .6-2.2.6-3.2 0l-17-9.8c-1-.6-1.6-1.6-1.6-2.8V30c0-1.2.6-2.2 1.6-2.8l17.4-10c1-.6 2.2-.6 3.2 0l7.8 4.5 7.8-4.5c-3.8-5.6-10.2-9.2-17.4-9.2" fill="#0D0D0D"/>
  </g>
  <text x="82" y="52" font-family="'Söhne', 'Inter', Arial, sans-serif" font-weight="600" font-size="38" fill="#0D0D0D" letter-spacing="-0.5">OpenAI</text>
</svg>
