<svg xmlns="http://www.w3.org/2000/svg" viewBox="0 0 200 60" fill="none">
  <!-- OpenAI logo mark - stylized knot -->
  <g transform="translate(10, 6) scale(0.46)">
    <path d="M88.1 25.8c-2.4-7.2-8.8-12.4-16.4-13.4C69.5 5 62.4 0 54.2 0c-5.3 0-10.3 2.2-13.9 6-7.2.4-13.6 4.6-16.6 11.2C16.5 19 11 25.2 11 32.6c0 5.3 2.2 10.3 6 13.9-.4 7.2 2.4 14.2 8 18.6 3.8 3 8.4 4.5 13 4.5 2.4 0 4.8-.4 7.2-1.2 4.4 5 10.8 7.8 17.4 7.8 5.3 0 10.3-2.2 13.9-6 7.2-.4 13.6-4.6 16.6-11.2 7.2-1.8 12.6-8 12.6-15.4 0-5.3-2.2-10.3-6-13.9.6-1.4.8-2.8.8-4.2-.1-0-.1-.2-.4-.7zM54.2 4.6c6.2 0 11.8 3.4 14.8 8.8-.2.1-.6.3-.8.4L50.8 23.4c-1 .6-1.6 1.6-1.6 2.8v22.2l-7.8-4.5V26.2c0-11.9 9.6-21.6 12.8-21.6zm-31 17.8c3-5.2 8.2-8.6 14-9.4v.9l-.2 19.4c0 1.2.6 2.2 1.6 2.8l19.2 11.1-7.8 4.5L32.2 41.2c-10.2-5.9-13.8-19-9-26.8zM19.6 53c0-1 0-2 .2-3l.4.3 17.6 10.2c1 .6 2.2.6 3.2 0l21.4-12.4V57l-18 10.4c-10.2 6-23.2 2.4-29-7.8-1.2-2.2-2-4.6-2.4-7zM57.2 67.6c-6.2 0-11.8-3.4-14.8-8.8l.8-.4 17.4-10.1c1-.6 1.6-1.6 1.6-2.8V23.2l7.8 4.5v18c0 12.2-9.8 21.8-12.8 22zm31-17.8c-3 5.2-8.2 8.6-14 9.4V58l.2-19.4c0-1.2-.6-2.2-1.6-2.8L51.4 24.7l7.8-4.5 17.8 10.3c10.2 5.8 13.8 18.8 9.2 26.6.6-2.8 1.6-5.3 2-7.3zM91.8 37.2l-.4-.3-17.6-10.2c-1-.6-2.2-.6-3.2 0L49.2 39.1v-9l18-10.4c10.2-6 23.4-2.4 29.2 7.8 3 5.2 3.8 11.4 2 17z" fill="#0D0D0D"/>
  </g>
  <text x="64" y="40" font-family="'Söhne', Arial, sans-serif" font-weight="600" font-size="28" fill="#0D0D0D" letter-spacing="-0.5">OpenAI</text>
</svg>
